<svg width="131" height="131" viewBox="0 0 131 131" fill="none" xmlns="http://www.w3.org/2000/svg">
<g filter="url(#filter0_d_944_1160)">
<rect width="100" height="100" rx="50" transform="matrix(1 0 0 -1 15.4629 110.309)" fill="#ED7A13" shape-rendering="crispEdges"/>
<rect x="3.125" y="-3.125" width="93.75" height="93.75" rx="46.875" transform="matrix(1 0 0 -1 15.4629 104.059)" stroke="white" stroke-width="6.25" shape-rendering="crispEdges"/>
<path d="M58.8848 35.3086V40.5717" stroke="white" stroke-width="4.49" stroke-linecap="round" stroke-linejoin="round"/>
<path d="M69.4082 35.3086V40.5717" stroke="white" stroke-width="4.49" stroke-linecap="round" stroke-linejoin="round"/>
<path d="M74.6734 51.0981C75.3714 51.0981 76.0407 51.3754 76.5342 51.8689C77.0277 52.3624 77.305 53.0318 77.305 53.7297V74.7823C77.305 77.5741 76.196 80.2515 74.2219 82.2256C72.2478 84.1996 69.5704 85.3087 66.7787 85.3087H50.9892C48.1975 85.3087 45.52 84.1996 43.546 82.2256C41.5719 80.2515 40.4629 77.5741 40.4629 74.7823V53.7297C40.4629 53.0318 40.7401 52.3624 41.2337 51.8689C41.7272 51.3754 42.3965 51.0981 43.0945 51.0981H79.9366C82.7283 51.0981 85.4057 52.2072 87.3798 54.1812C89.3539 56.1553 90.4629 58.8327 90.4629 61.6245C90.4629 64.4162 89.3539 67.0936 87.3798 69.0677C85.4057 71.0418 82.7283 72.1508 79.9366 72.1508H77.305" stroke="white" stroke-width="4.49" stroke-linecap="round" stroke-linejoin="round"/>
<path d="M48.3574 35.3086V40.5717" stroke="white" stroke-width="4.49" stroke-linecap="round" stroke-linejoin="round"/>
</g>
<defs>
<filter id="filter0_d_944_1160" x="0" y="0" width="130.926" height="130.926" filterUnits="userSpaceOnUse" color-interpolation-filters="sRGB">
<feFlood flood-opacity="0" result="BackgroundImageFix"/>
<feColorMatrix in="SourceAlpha" type="matrix" values="0 0 0 0 0 0 0 0 0 0 0 0 0 0 0 0 0 0 127 0" result="hardAlpha"/>
<feOffset dy="5.1543"/>
<feGaussianBlur stdDeviation="7.73145"/>
<feComposite in2="hardAlpha" operator="out"/>
<feColorMatrix type="matrix" values="0 0 0 0 0 0 0 0 0 0 0 0 0 0 0 0 0 0 0.3 0"/>
<feBlend mode="normal" in2="BackgroundImageFix" result="effect1_dropShadow_944_1160"/>
<feBlend mode="normal" in="SourceGraphic" in2="effect1_dropShadow_944_1160" result="shape"/>
</filter>
</defs>
</svg>
