<svg preserveAspectRatio="none" width="100%" height="100%" overflow="visible" style="display: block;" viewBox="0 0 374.551 136.951" fill="none" xmlns="http://www.w3.org/2000/svg">
<g id="Group" opacity="0.3">
<path id="Vector" d="M2.42869 130.375C3.77001 130.375 4.85737 129.394 4.85737 128.184C4.85737 126.973 3.77001 125.992 2.42869 125.992C1.08737 125.992 1.29251e-05 126.973 1.29251e-05 128.184C1.29251e-05 129.394 1.08737 130.375 2.42869 130.375Z" fill="var(--fill-0, #B09878)"/>
<path id="Vector_2" d="M18.6199 136.951C19.5141 136.951 20.239 136.297 20.239 135.49C20.239 134.683 19.5141 134.029 18.6199 134.029C17.7256 134.029 17.0007 134.683 17.0007 135.49C17.0007 136.297 17.7256 136.951 18.6199 136.951Z" fill="var(--fill-0, #C9A96E)"/>
<path id="Vector_3" d="M63.122 56.3837C64.4634 56.3837 65.5507 55.4024 65.5507 54.1918C65.5507 52.9813 64.4634 52 63.122 52C61.7807 52 60.6934 52.9813 60.6934 54.1918C60.6934 55.4024 61.7807 56.3837 63.122 56.3837Z" fill="var(--fill-0, #B09878)"/>
<path id="Vector_4" d="M117.636 93.507C118.709 93.507 119.579 92.7219 119.579 91.7535C119.579 90.7851 118.709 90 117.636 90C116.563 90 115.693 90.7851 115.693 91.7535C115.693 92.7219 116.563 93.507 117.636 93.507Z" fill="var(--fill-0, #C9A96E)"/>
<path id="Vector_5" d="M243.122 4.38367C244.463 4.38367 245.551 3.40235 245.551 2.19184C245.551 0.981319 244.463 0 243.122 0C241.781 0 240.693 0.981319 240.693 2.19184C240.693 3.40235 241.781 4.38367 243.122 4.38367Z" fill="var(--fill-0, #B09878)"/>
<path id="Vector_6" d="M212.914 63.8897C213.808 63.8897 214.533 63.2355 214.533 62.4285C214.533 61.6215 213.808 60.9673 212.914 60.9673C212.02 60.9673 211.295 61.6215 211.295 62.4285C211.295 63.2355 212.02 63.8897 212.914 63.8897Z" fill="var(--fill-0, #C9A96E)"/>
<path id="Vector_7" d="M335.636 62.507C336.709 62.507 337.579 61.7219 337.579 60.7535C337.579 59.7851 336.709 59 335.636 59C334.563 59 333.693 59.7851 333.693 60.7535C333.693 61.7219 334.563 62.507 335.636 62.507Z" fill="var(--fill-0, #B09878)"/>
<path id="Vector_8" d="M372.122 59.3837C373.463 59.3837 374.551 58.4024 374.551 57.1918C374.551 55.9813 373.463 55 372.122 55C370.781 55 369.693 55.9813 369.693 57.1918C369.693 58.4024 370.781 59.3837 372.122 59.3837Z" fill="var(--fill-0, #C9A96E)"/>
</g>
</svg>
