<svg preserveAspectRatio="none" width="100%" height="100%" overflow="visible" style="display: block;" viewBox="0 0 84.1941 124.204" fill="none" xmlns="http://www.w3.org/2000/svg">
<g id="Group">
<path id="Vector" opacity="0.5" d="M40.4779 43.8368H37.2397C35.4513 43.8368 34.0015 45.1452 34.0015 46.7592V121.282C34.0015 122.896 35.4513 124.204 37.2397 124.204H40.4779C42.2664 124.204 43.7162 122.896 43.7162 121.282V46.7592C43.7162 45.1452 42.2664 43.8368 40.4779 43.8368Z" fill="var(--fill-0, #A8896A)"/>
<path id="Vector_2" opacity="0.5" d="M38.8588 64.2939C60.32 64.2939 77.7177 49.9012 77.7177 32.1469C77.7177 14.3927 60.32 0 38.8588 0C17.3977 0 2.65682e-05 14.3927 2.65682e-05 32.1469C2.65682e-05 49.9012 17.3977 64.2939 38.8588 64.2939Z" fill="var(--fill-0, #8BB87A)"/>
<path id="Vector_3" opacity="0.45" d="M25.9059 39.4531C40.2133 39.4531 51.8118 30.9483 51.8118 20.4572C51.8118 9.96602 40.2133 1.46126 25.9059 1.46126C11.5985 1.46126 0 9.96602 0 20.4572C0 30.9483 11.5985 39.4531 25.9059 39.4531Z" fill="var(--fill-0, #9ACA88)"/>
<path id="Vector_4" opacity="0.4" d="M55.05 59.9102C71.1458 59.9102 84.1941 50.7513 84.1941 39.4531C84.1941 28.1549 71.1458 18.9959 55.05 18.9959C38.9541 18.9959 25.9059 28.1549 25.9059 39.4531C25.9059 50.7513 38.9541 59.9102 55.05 59.9102Z" fill="var(--fill-0, #78A868)"/>
</g>
</svg>
