<svg preserveAspectRatio="none" width="100%" height="100%" overflow="visible" style="display: block;" viewBox="0 0 69.6221 102.286" fill="none" xmlns="http://www.w3.org/2000/svg">
<g id="Group">
<path id="Vector" opacity="0.5" d="M34.0015 36.5306H30.7633C28.9748 36.5306 27.525 37.839 27.525 39.4531V99.3633C27.525 100.977 28.9748 102.286 30.7633 102.286H34.0015C35.7899 102.286 37.2397 100.977 37.2397 99.3633V39.4531C37.2397 37.839 35.7899 36.5306 34.0015 36.5306Z" fill="var(--fill-0, #A8896A)"/>
<path id="Vector_2" opacity="0.45" d="M32.3824 54.0653C50.2666 54.0653 64.7647 42.2895 64.7647 27.7633C64.7647 13.2371 50.2666 1.46124 32.3824 1.46124C14.4981 1.46124 8.07818e-06 13.2371 8.07818e-06 27.7633C8.07818e-06 42.2895 14.4981 54.0653 32.3824 54.0653Z" fill="var(--fill-0, #8BB87A)"/>
<path id="Vector_3" opacity="0.4" d="M22.6676 32.1469C35.1866 32.1469 45.3353 24.9506 45.3353 16.0735C45.3353 7.19634 35.1866 0 22.6676 0C10.1487 0 0 7.19634 0 16.0735C0 24.9506 10.1487 32.1469 22.6676 32.1469Z" fill="var(--fill-0, #9ACA88)"/>
<path id="Vector_4" opacity="0.35" d="M45.3353 51.1429C58.7485 51.1429 69.6221 43.2923 69.6221 33.6082C69.6221 23.924 58.7485 16.0735 45.3353 16.0735C31.9221 16.0735 21.0485 23.924 21.0485 33.6082C21.0485 43.2923 31.9221 51.1429 45.3353 51.1429Z" fill="var(--fill-0, #78A868)"/>
</g>
</svg>
