<svg preserveAspectRatio="none" width="100%" height="100%" overflow="visible" style="display: block;" viewBox="0 0 55.05 84.751" fill="none" xmlns="http://www.w3.org/2000/svg">
<g id="Group">
<path id="Vector" opacity="0.45" d="M26.7154 29.2245H25.0963C23.3079 29.2245 21.8581 30.5329 21.8581 32.1469V81.8286C21.8581 83.4426 23.3079 84.751 25.0963 84.751H26.7154C28.5039 84.751 29.9537 83.4426 29.9537 81.8286V32.1469C29.9537 30.5329 28.5039 29.2245 26.7154 29.2245Z" fill="var(--fill-0, #B09878)"/>
<path id="Vector_2" opacity="0.4" d="M25.9059 42.3755C40.2133 42.3755 51.8118 33.2165 51.8118 21.9184C51.8118 10.6202 40.2133 1.46122 25.9059 1.46122C11.5985 1.46122 2.3337e-06 10.6202 2.3337e-06 21.9184C2.3337e-06 33.2165 11.5985 42.3755 25.9059 42.3755Z" fill="var(--fill-0, #7DAA6B)"/>
<path id="Vector_3" opacity="0.35" d="M35.6206 29.2245C46.3511 29.2245 55.05 22.6824 55.05 14.6122C55.05 6.54212 46.3511 0 35.6206 0C24.89 0 16.1912 6.54212 16.1912 14.6122C16.1912 22.6824 24.89 29.2245 35.6206 29.2245Z" fill="var(--fill-0, #8FBD7A)"/>
</g>
</svg>
