<svg preserveAspectRatio="none" width="100%" height="100%" overflow="visible" style="display: block;" viewBox="0 0 121.434 181.192" fill="none" xmlns="http://www.w3.org/2000/svg">
<g id="Group">
<path id="Vector" opacity="0.6" d="M58.2882 64.2939H55.05C52.3674 64.2939 50.1926 66.2565 50.1926 68.6776V176.808C50.1926 179.229 52.3674 181.192 55.05 181.192H58.2882C60.9709 181.192 63.1456 179.229 63.1456 176.808V68.6776C63.1456 66.2565 60.9709 64.2939 58.2882 64.2939Z" fill="var(--fill-0, #9B7E5A)"/>
<path id="Vector_2" opacity="0.55" d="M56.6691 93.5184C87.9666 93.5184 113.338 73.892 113.338 49.6816C113.338 25.4713 87.9666 5.8449 56.6691 5.8449C25.3716 5.8449 0 25.4713 0 49.6816C0 73.892 25.3716 93.5184 56.6691 93.5184Z" fill="var(--fill-0, #7DAA6B)"/>
<path id="Vector_3" opacity="0.5" d="M37.2397 61.3714C56.9124 61.3714 72.8603 49.5956 72.8603 35.0694C72.8603 20.5432 56.9124 8.76735 37.2397 8.76735C17.567 8.76735 1.61912 20.5432 1.61912 35.0694C1.61912 49.5956 17.567 61.3714 37.2397 61.3714Z" fill="var(--fill-0, #8FBD7A)"/>
<path id="Vector_4" opacity="0.45" d="M80.9559 86.2122C103.311 86.2122 121.434 73.128 121.434 56.9878C121.434 40.8475 103.311 27.7633 80.9559 27.7633C58.6005 27.7633 40.4779 40.8475 40.4779 56.9878C40.4779 73.128 58.6005 86.2122 80.9559 86.2122Z" fill="var(--fill-0, #6B9A5A)"/>
<path id="Vector_5" opacity="0.4" d="M48.5735 40.9143C64.6694 40.9143 77.7176 31.7553 77.7176 20.4571C77.7176 9.15897 64.6694 0 48.5735 0C32.4777 0 19.4294 9.15897 19.4294 20.4571C19.4294 31.7553 32.4777 40.9143 48.5735 40.9143Z" fill="var(--fill-0, #A0C88E)"/>
</g>
</svg>
