<svg preserveAspectRatio="none" width="100%" height="100%" overflow="visible" style="display: block;" viewBox="0 0 46.9544 73.0612" fill="none" xmlns="http://www.w3.org/2000/svg">
<g id="Group">
<path id="Vector" opacity="0.4" d="M27.525 29.2245C27.525 27.6105 26.0751 26.302 24.2867 26.302C22.4983 26.302 21.0485 27.6105 21.0485 29.2245V70.1388C21.0485 71.7528 22.4983 73.0612 24.2867 73.0612C26.0751 73.0612 27.525 71.7528 27.525 70.1388V29.2245Z" fill="var(--fill-0, #B09878)"/>
<path id="Vector_2" opacity="0.4" d="M24.2867 37.9918C36.8057 37.9918 46.9544 30.1413 46.9544 20.4571C46.9544 10.773 36.8057 2.92245 24.2867 2.92245C11.7677 2.92245 1.61907 10.773 1.61907 20.4571C1.61907 30.1413 11.7677 37.9918 24.2867 37.9918Z" fill="var(--fill-0, #7DAA6B)"/>
<path id="Vector_3" opacity="0.35" d="M16.1912 23.3796C25.1333 23.3796 32.3824 18.1459 32.3824 11.6898C32.3824 5.2337 25.1333 0 16.1912 0C7.24904 0 0 5.2337 0 11.6898C0 18.1459 7.24904 23.3796 16.1912 23.3796Z" fill="var(--fill-0, #9ACA88)"/>
</g>
</svg>
