<svg width="24" height="24" viewBox="0 0 24 24" fill="none" xmlns="http://www.w3.org/2000/svg">
<path fill-rule="evenodd" clip-rule="evenodd" d="M3.04098 5.8C3.04098 5.35817 3.39915 5 3.84098 5H20.001C20.4429 5 20.801 5.35817 20.801 5.8C20.801 6.24183 20.4429 6.6 20.001 6.6H3.84098C3.39915 6.6 3.04098 6.24183 3.04098 5.8ZM3.04098 12.0844C3.04098 11.6426 3.39915 11.2844 3.84098 11.2844H20.001C20.4429 11.2844 20.801 11.6426 20.801 12.0844C20.801 12.5262 20.4429 12.8844 20.001 12.8844H3.84098C3.39915 12.8844 3.04098 12.5262 3.04098 12.0844ZM3.8 17.5688C3.35817 17.5688 3 17.927 3 18.3688C3 18.8107 3.35817 19.1688 3.8 19.1688H19.96C20.4019 19.1688 20.76 18.8107 20.76 18.3688C20.76 17.927 20.4019 17.5688 19.96 17.5688H3.8Z" fill="#191E26"/>
</svg>
