<svg width="186" height="44" viewBox="0 0 186 44" fill="none" xmlns="http://www.w3.org/2000/svg">
<g clip-path="url(#clip0_675_523)">
<path d="M83.9518 7.82367H96.2708C97.8126 7.82367 99.0533 7.92103 99.9981 8.11831C100.94 8.31559 101.678 8.66916 102.21 9.18158C102.742 9.694 103.1 10.4011 103.287 11.3056C103.471 12.21 103.565 13.386 103.565 14.8284V35.4072H99.8969V14.8284C99.8969 14.1187 99.858 13.5423 99.7775 13.0965C99.697 12.6507 99.5387 12.2894 99.2999 12.0153C99.0611 11.7386 98.7029 11.549 98.2227 11.4439C97.7451 11.3389 97.1066 11.2876 96.3097 11.2876H83.9518V7.82367ZM112.652 7.03711V18.8407H117.275V22.3021H112.652V36.1912H108.984V7.03711H112.652Z" fill="#3E2722"/>
<path d="M118.073 20.5348H151.557V23.9962H118.073V20.5348ZM148.37 18.8822H128.557C127.015 18.8822 125.772 18.7849 124.83 18.5876C123.888 18.3903 123.148 18.0367 122.618 17.5243C122.086 17.0119 121.728 16.3048 121.541 15.4003C121.354 14.4959 121.263 13.3225 121.263 11.8775V7.82422H124.931V11.9569C124.931 12.6666 124.97 13.243 125.05 13.6889C125.131 14.1347 125.289 14.4959 125.528 14.7701C125.767 15.0468 126.125 15.2364 126.605 15.3414C127.083 15.4465 127.721 15.4977 128.518 15.4977H148.37V18.8822ZM148.769 36.1943H127.363C126.008 36.1943 124.926 36.0764 124.113 35.8407C123.303 35.605 122.691 35.2361 122.281 34.739C121.868 34.2394 121.596 33.5989 121.463 32.8123C121.331 32.0258 121.263 31.0804 121.263 29.9787V25.5334H124.931V29.7839C124.931 30.3886 124.957 30.8805 125.011 31.2597C125.063 31.6415 125.17 31.9489 125.331 32.1846C125.489 32.4203 125.73 32.5843 126.047 32.6765C126.366 32.7688 126.792 32.8149 127.322 32.8149H148.767V36.1994L148.769 36.1943Z" fill="#3E2722"/>
<path d="M155.706 7.82367H168.422C169.964 7.82367 171.204 7.92103 172.149 8.11831C173.091 8.31559 173.831 8.66916 174.361 9.18158C174.893 9.694 175.251 10.4011 175.438 11.3056C175.625 12.21 175.718 13.386 175.718 14.8284V22.4225H172.05V14.8284C172.05 14.1187 172.012 13.5423 171.931 13.0965C171.851 12.6507 171.692 12.2894 171.453 12.0153C171.215 11.7386 170.856 11.549 170.376 11.4439C169.899 11.3389 169.26 11.2876 168.463 11.2876H155.708V7.82367H155.706ZM157.299 23.9572H185.602V31.7075H160.967V32.0227C160.967 32.4172 161.107 32.6581 161.385 32.7503C161.663 32.8425 162.122 32.8886 162.761 32.8886H186.002V36.1937H162.802C161.66 36.1937 160.728 36.0964 160.012 35.8991C159.295 35.7018 158.737 35.42 158.338 35.0536C157.938 34.6847 157.665 34.2414 157.52 33.7162C157.375 33.191 157.302 32.6017 157.302 31.9458V28.405H181.937V27.2648H157.302V23.9597L157.299 23.9572ZM185.602 7.03711V22.8145H181.935V7.03711H185.602Z" fill="#3E2722"/>
</g>
<g clip-path="url(#clip1_675_523)">
<path d="M41.0593 8H34.2754V32.279H41.0593V8Z" fill="#FFEDA1"/>
<path d="M9.99921 14.3376V8C11.8259 8 19.8086 8.20109 26.5407 14.4466C34.1082 21.468 34.2743 30.726 34.2756 32.279H27.7083C27.6862 31.0361 27.4488 24.5427 22.1374 19.4246C17.245 14.71 11.3861 14.3792 9.99921 14.3376Z" fill="#FFEDA1"/>
<path d="M65.3356 25.9413V32.279C63.5089 32.279 55.5262 32.0779 48.7941 25.8323C41.2266 18.811 41.0605 9.55165 41.0592 8H47.6265C47.6485 9.24288 47.886 15.7362 53.1974 20.8543C58.0898 25.569 63.9487 25.8998 65.3356 25.9413Z" fill="#FFEDA1"/>
</g>
<defs>
<clipPath id="clip0_675_523">
<rect width="102.048" height="29.1566" fill="white" transform="translate(83.9512 7.03711)"/>
</clipPath>
<clipPath id="clip1_675_523">
<rect width="55.3367" height="24.279" fill="white" transform="translate(10 8)"/>
</clipPath>
</defs>
</svg>
