<svg width="141" height="25" viewBox="0 0 141 25" fill="none" xmlns="http://www.w3.org/2000/svg">
<path d="M25.8273 2.34375H20.5273V21.3117H25.8273V2.34375Z" fill="#FFEDA1"/>
<path d="M1.5625 7.295V2.34375C2.98984 2.34375 9.22577 2.50086 14.4851 7.38016C20.3976 12.8656 20.5281 20.0984 20.5281 21.3117H15.3977C15.3805 20.3407 15.1953 15.2677 11.0453 11.2692C7.22344 7.58594 2.64609 7.3275 1.5625 7.295Z" fill="#FFEDA1"/>
<path d="M44.793 16.3604V21.3117C43.3657 21.3117 37.1297 21.1546 31.8704 16.2752C25.9579 10.7898 25.8282 3.55602 25.8274 2.34375H30.9579C30.9751 3.31477 31.1602 8.38766 35.3102 12.3862C39.1321 16.0695 43.7094 16.328 44.793 16.3604Z" fill="#FFEDA1"/>
<path d="M59.3367 2.20645H68.9609C70.1656 2.20645 71.1351 2.28247 71.8734 2.43661C72.6093 2.59075 73.1851 2.867 73.6008 3.26731C74.0164 3.66762 74.2961 4.22005 74.4422 4.92661C74.5867 5.63325 74.6593 6.552 74.6593 7.67888V23.7561H71.7937V7.67888C71.7937 7.12442 71.7632 6.67411 71.7007 6.32583C71.6375 5.97747 71.514 5.69528 71.3273 5.48106C71.1406 5.26489 70.8609 5.11676 70.4859 5.03473C70.1124 4.9527 69.614 4.91262 68.9914 4.91262H59.3367V2.20645ZM81.7586 1.59192V10.8135H85.3703V13.5177H81.7586V24.3686H78.8937V1.59192H81.7586Z" fill="#3E2722"/>
<path d="M85.9937 12.1362H112.153V14.8404H85.9937V12.1362ZM109.663 10.8451H94.1843C92.9796 10.8451 92.0085 10.7691 91.2726 10.615C90.5366 10.4608 89.9585 10.1846 89.5444 9.78426C89.1288 9.38395 88.8491 8.83153 88.703 8.12489C88.5569 7.41832 88.4858 6.5016 88.4858 5.37269V2.20605H91.3515V5.43473C91.3515 5.98918 91.3819 6.43957 91.4444 6.78785C91.5077 7.13613 91.6312 7.41832 91.8179 7.63254C92.0046 7.84871 92.2843 7.99683 92.6593 8.07886C93.0327 8.16097 93.5312 8.20098 94.1538 8.20098H109.663V10.8451ZM109.975 24.3702H93.2515C92.1929 24.3702 91.3476 24.2781 90.7124 24.0939C90.0804 23.9098 89.6015 23.6216 89.2812 23.2332C88.9585 22.8429 88.746 22.3425 88.6421 21.728C88.539 21.1136 88.4858 20.375 88.4858 19.5143V16.0414H91.3515V19.3621C91.3515 19.8345 91.3718 20.2188 91.414 20.515C91.4546 20.8133 91.5382 21.0535 91.664 21.2376C91.7874 21.4218 91.9757 21.5499 92.2233 21.6219C92.4726 21.694 92.8054 21.73 93.2195 21.73H109.973V24.3742L109.975 24.3702Z" fill="#3E2722"/>
<path d="M115.395 2.20645H125.329C126.534 2.20645 127.503 2.28247 128.241 2.43661C128.977 2.59075 129.555 2.867 129.969 3.26731C130.384 3.66762 130.664 4.22005 130.81 4.92661C130.956 5.63325 131.03 6.552 131.03 7.67888V13.6118H128.164V7.67888C128.164 7.12442 128.134 6.67411 128.071 6.32583C128.008 5.97747 127.884 5.69528 127.698 5.48106C127.511 5.26489 127.231 5.11676 126.856 5.03473C126.483 4.9527 125.984 4.91262 125.362 4.91262H115.397V2.20645H115.395ZM116.64 14.8108H138.752V20.8657H119.505V21.1118C119.505 21.4201 119.615 21.6082 119.831 21.6804C120.048 21.7524 120.408 21.7884 120.906 21.7884H139.064V24.3705H120.939C120.047 24.3705 119.319 24.2945 118.759 24.1404C118.199 23.9862 117.763 23.7661 117.451 23.4798C117.138 23.1916 116.926 22.8453 116.812 22.435C116.698 22.0247 116.641 21.5643 116.641 21.0518V18.2856H135.888V17.3948H116.641V14.8127L116.64 14.8108ZM138.752 1.59192V13.918H135.886V1.59192H138.752Z" fill="#3E2722"/>
</svg>
