<svg width="24" height="24" viewBox="0 0 24 24" fill="none" xmlns="http://www.w3.org/2000/svg">
<path fill-rule="evenodd" clip-rule="evenodd" d="M3.89961 11.0542C3.89961 7.10128 7.09346 3.90156 11.0274 3.90156C14.9614 3.90156 18.1553 7.10128 18.1553 11.0542C18.1553 15.0071 14.9614 18.2068 11.0274 18.2068C7.09346 18.2068 3.89961 15.0071 3.89961 11.0542ZM11.0274 2.10156C6.09411 2.10156 2.09961 6.11241 2.09961 11.0542C2.09961 15.9959 6.09411 20.0068 11.0274 20.0068C12.9271 20.0068 14.6875 19.4121 16.1343 18.3985L19.363 21.6373C19.7139 21.9893 20.2838 21.9902 20.6358 21.6393C20.9878 21.2884 20.9887 20.7185 20.6378 20.3665L17.5007 17.2196C19.0221 15.6138 19.9552 13.4427 19.9552 11.0542C19.9552 6.11241 15.9607 2.10156 11.0274 2.10156Z" fill="#191E26"/>
</svg>
