<svg preserveAspectRatio="none" width="100%" height="100%" overflow="visible" style="display: block;" viewBox="0 0 17 17" fill="none" xmlns="http://www.w3.org/2000/svg">
<g id="Icon">
<path id="Vector" d="M14.1667 7.08333C14.1667 10.62 10.2432 14.3034 8.92571 15.441C8.80297 15.5333 8.65357 15.5832 8.5 15.5832C8.34643 15.5832 8.19703 15.5333 8.07429 15.441C6.75679 14.3034 2.83333 10.62 2.83333 7.08333C2.83333 5.58044 3.43036 4.1391 4.49306 3.0764C5.55577 2.01369 6.99711 1.41667 8.5 1.41667C10.0029 1.41667 11.4442 2.01369 12.5069 3.0764C13.5696 4.1391 14.1667 5.58044 14.1667 7.08333Z" stroke="var(--stroke-0, #2C2417)" stroke-width="1.41667" stroke-linecap="round" stroke-linejoin="round"/>
<path id="Vector_2" d="M8.5 9.20833C9.6736 9.20833 10.625 8.25694 10.625 7.08333C10.625 5.90973 9.6736 4.95833 8.5 4.95833C7.32639 4.95833 6.375 5.90973 6.375 7.08333C6.375 8.25694 7.32639 9.20833 8.5 9.20833Z" stroke="var(--stroke-0, #2C2417)" stroke-width="1.41667" stroke-linecap="round" stroke-linejoin="round"/>
</g>
</svg>
