<svg preserveAspectRatio="none" width="100%" height="100%" overflow="visible" style="display: block;" viewBox="0 0 15 15" fill="none" xmlns="http://www.w3.org/2000/svg">
<path id="Vector" d="M7.5 0.75C6.6049 1.64511 6.10203 2.85913 6.10203 4.125C6.10203 5.39087 6.6049 6.60489 7.5 7.5C8.39511 8.39511 9.60913 8.89797 10.875 8.89797C12.1409 8.89797 13.3549 8.39511 14.25 7.5C14.25 8.83502 13.8541 10.1401 13.1124 11.2501C12.3707 12.3601 11.3165 13.2253 10.0831 13.7362C8.84972 14.2471 7.49252 14.3808 6.18314 14.1203C4.87377 13.8599 3.67104 13.217 2.72703 12.273C1.78303 11.329 1.14015 10.1262 0.879703 8.81686C0.619253 7.50749 0.752925 6.15029 1.26382 4.91689C1.77471 3.68349 2.63987 2.62928 3.7499 1.88758C4.85994 1.14588 6.16498 0.75 7.5 0.75Z" stroke="var(--stroke-0, #8B7E6A)" stroke-width="1.5" stroke-linecap="round" stroke-linejoin="round"/>
</svg>
