<svg preserveAspectRatio="none" width="100%" height="100%" overflow="visible" style="display: block;" viewBox="0 0 7.7782 7.7782" fill="none" xmlns="http://www.w3.org/2000/svg">
<g id="Icon" clip-path="url(#clip0_0_21)">
<path id="Vector" d="M3.24093 0.648206V1.29639" stroke="#FDFDFD" stroke-width="0.648183" stroke-linecap="round" stroke-linejoin="round"/>
<path id="Vector_2" d="M4.53737 0.648206V1.29639" stroke="#FDFDFD" stroke-width="0.648183" stroke-linecap="round" stroke-linejoin="round"/>
<path id="Vector_3" d="M5.18545 2.59279C5.27141 2.59279 5.35384 2.62693 5.41462 2.68771C5.4754 2.74849 5.50955 2.83092 5.50955 2.91688V5.50961C5.50955 5.85343 5.37297 6.18316 5.12985 6.42628C4.88673 6.6694 4.557 6.80598 4.21318 6.80598H2.26863C1.92481 6.80598 1.59508 6.6694 1.35196 6.42628C1.10884 6.18316 0.972263 5.85343 0.972263 5.50961V2.91688C0.972263 2.83092 1.00641 2.74849 1.06719 2.68771C1.12797 2.62693 1.2104 2.59279 1.29635 2.59279H5.83364C6.17746 2.59279 6.50719 2.72937 6.75031 2.97248C6.99342 3.2156 7.13 3.54533 7.13 3.88915C7.13 4.23297 6.99342 4.56271 6.75031 4.80582C6.50719 5.04894 6.17746 5.18552 5.83364 5.18552H5.50955" stroke="#FDFDFD" stroke-width="0.648183" stroke-linecap="round" stroke-linejoin="round"/>
<path id="Vector_4" d="M1.94459 0.648206V1.29639" stroke="#FDFDFD" stroke-width="0.648183" stroke-linecap="round" stroke-linejoin="round"/>
</g>
<defs>
<clipPath id="clip0_0_21">
<rect width="7.7782" height="7.7782" fill="white"/>
</clipPath>
</defs>
</svg>
