<svg preserveAspectRatio="none" width="100%" height="100%" overflow="visible" style="display: block;" viewBox="0 0 7.7782 7.7782" fill="none" xmlns="http://www.w3.org/2000/svg">
<g id="Icon" clip-path="url(#clip0_0_18)">
<path id="Vector" d="M5.50956 4.53729L6.48184 5.6068C6.52625 5.65209 6.55639 5.70943 6.56853 5.7717C6.58066 5.83397 6.57425 5.89843 6.5501 5.95709C6.52595 6.01575 6.48511 6.06603 6.43264 6.1017C6.38018 6.13737 6.31841 6.15686 6.25497 6.15775H1.52323C1.4598 6.15686 1.39802 6.13737 1.34556 6.1017C1.2931 6.06603 1.25226 6.01575 1.22811 5.95709C1.20395 5.89843 1.19754 5.83397 1.20968 5.7717C1.22181 5.70943 1.25196 5.65209 1.29637 5.6068L2.26865 4.53729H2.17142C2.10798 4.5364 2.04621 4.51691 1.99375 4.48124C1.94128 4.44557 1.90044 4.39529 1.87629 4.33663C1.85213 4.27797 1.84573 4.21351 1.85786 4.15124C1.87 4.08897 1.90014 4.03164 1.94455 3.98634L2.91683 2.91684H2.85201C2.78581 2.92281 2.71938 2.90828 2.66172 2.87523C2.60406 2.84217 2.55795 2.79219 2.52965 2.73205C2.50135 2.67191 2.49222 2.60453 2.50351 2.53903C2.51479 2.47353 2.54594 2.41308 2.59274 2.36588L3.8891 0.972286L5.18547 2.36588C5.23226 2.41308 5.26341 2.47353 5.2747 2.53903C5.28599 2.60453 5.27686 2.67191 5.24856 2.73205C5.22026 2.79219 5.17415 2.84217 5.11649 2.87523C5.05882 2.90828 4.99239 2.92281 4.9262 2.91684H4.86138L5.83365 3.98634C5.87807 4.03164 5.90821 4.08897 5.92034 4.15124C5.93248 4.21351 5.92607 4.27797 5.90192 4.33663C5.87776 4.39529 5.83692 4.44557 5.78446 4.48124C5.732 4.51691 5.67022 4.5364 5.60679 4.53729H5.50956Z" stroke="var(--stroke-0, #8B7E6A)" stroke-width="0.648183" stroke-linecap="round" stroke-linejoin="round"/>
<path id="Vector_2" d="M3.88902 7.13003V6.15775" stroke="var(--stroke-0, #8B7E6A)" stroke-width="0.648183" stroke-linecap="round" stroke-linejoin="round"/>
</g>
<defs>
<clipPath id="clip0_0_18">
<rect width="7.7782" height="7.7782" fill="white"/>
</clipPath>
</defs>
</svg>
