<svg preserveAspectRatio="none" width="100%" height="100%" overflow="visible" style="display: block;" viewBox="0 0 7.87118 7.87118" fill="none" xmlns="http://www.w3.org/2000/svg">
<g id="Icon" clip-path="url(#clip0_0_48)">
<path id="Vector" d="M3.77983 0.752679C3.79421 0.723641 3.81641 0.699198 3.84393 0.682109C3.87146 0.665019 3.90322 0.655964 3.93562 0.655964C3.96802 0.655964 3.99977 0.665019 4.0273 0.682109C4.05483 0.699198 4.07703 0.723641 4.0914 0.752679L4.849 2.28723C4.89891 2.38823 4.97258 2.47562 5.0637 2.54188C5.15481 2.60814 5.26064 2.65131 5.37211 2.66767L7.06638 2.91561C7.09848 2.92026 7.12864 2.93381 7.15345 2.95471C7.17826 2.97561 7.19672 3.00303 7.20675 3.03388C7.21679 3.06473 7.21799 3.09777 7.21022 3.12926C7.20245 3.16076 7.18603 3.18945 7.1628 3.21209L5.93752 4.40523C5.85671 4.48398 5.79626 4.58118 5.76135 4.68847C5.72644 4.79577 5.71813 4.90994 5.73713 5.02115L6.0264 6.7069C6.03207 6.73899 6.0286 6.77202 6.0164 6.80223C6.00419 6.83244 5.98374 6.85862 5.95738 6.87777C5.93101 6.89692 5.8998 6.90827 5.86729 6.91053C5.83479 6.91279 5.8023 6.90587 5.77354 6.89056L4.25899 6.09426C4.1592 6.04186 4.04817 6.01448 3.93545 6.01448C3.82274 6.01448 3.71171 6.04186 3.61191 6.09426L2.0977 6.89056C2.06894 6.90578 2.0365 6.91263 2.00405 6.91032C1.9716 6.90801 1.94044 6.89665 1.91413 6.87751C1.88782 6.85838 1.86741 6.83224 1.85522 6.80208C1.84302 6.77192 1.83954 6.73894 1.84516 6.7069L2.1341 5.02148C2.15319 4.91021 2.14492 4.79597 2.11001 4.68861C2.0751 4.58125 2.01459 4.484 1.93371 4.40523L0.708433 3.21242C0.685014 3.1898 0.668419 3.16106 0.660538 3.12947C0.652657 3.09788 0.653806 3.06471 0.663856 3.03374C0.673905 3.00277 0.69245 2.97525 0.717379 2.95431C0.742308 2.93336 0.772617 2.91984 0.804855 2.91529L2.4988 2.66767C2.61039 2.65144 2.71637 2.60833 2.80761 2.54206C2.89884 2.47578 2.97261 2.38833 3.02256 2.28723L3.77983 0.752679Z" stroke="var(--stroke-0, white)" stroke-width="0.655932" stroke-linecap="round" stroke-linejoin="round"/>
</g>
<defs>
<clipPath id="clip0_0_48">
<rect width="7.87118" height="7.87118" fill="white"/>
</clipPath>
</defs>
</svg>
