<svg preserveAspectRatio="none" width="100%" height="100%" overflow="visible" style="display: block;" viewBox="0 0 7.7782 7.7782" fill="none" xmlns="http://www.w3.org/2000/svg">
<g id="Icon" clip-path="url(#clip0_0_30)">
<path id="Vector" d="M5.18549 0.648206L4.44008 1.39362C4.26193 1.57536 4.16215 1.81971 4.16215 2.07421C4.16215 2.3287 4.26193 2.57306 4.44008 2.7548L5.02345 3.33817C5.20519 3.51631 5.44954 3.6161 5.70404 3.6161C5.95854 3.6161 6.20289 3.51631 6.38463 3.33817L7.13004 2.59276" stroke="#FDFDFD" stroke-width="0.648183" stroke-linecap="round" stroke-linejoin="round"/>
<path id="Vector_2" d="M4.86149 4.86141L1.06962 1.06954C0.940268 1.19628 0.837507 1.34755 0.767353 1.5145C0.6972 1.68145 0.661065 1.86072 0.661065 2.04181C0.661065 2.2229 0.6972 2.40218 0.767353 2.56913C0.837507 2.73608 0.940268 2.88735 1.06962 3.01409L3.43549 5.37996C3.66235 5.60682 4.08367 5.60682 4.34294 5.37996L4.86149 4.86141ZM4.86149 4.86141L7.13013 7.13005" stroke="#FDFDFD" stroke-width="0.648183" stroke-linecap="round" stroke-linejoin="round"/>
<path id="Vector_3" d="M0.680705 7.06523L2.75489 5.02345" stroke="#FDFDFD" stroke-width="0.648183" stroke-linecap="round" stroke-linejoin="round"/>
<path id="Vector_4" d="M6.15779 1.62048L3.88915 3.88912" stroke="#FDFDFD" stroke-width="0.648183" stroke-linecap="round" stroke-linejoin="round"/>
</g>
<defs>
<clipPath id="clip0_0_30">
<rect width="7.7782" height="7.7782" fill="white"/>
</clipPath>
</defs>
</svg>
