<svg preserveAspectRatio="none" width="100%" height="100%" overflow="visible" style="display: block;" viewBox="0 0 7.72414 7.72414" fill="none" xmlns="http://www.w3.org/2000/svg">
<g id="Icon" clip-path="url(#clip0_0_43)">
<path id="Vector" d="M3.86232 2.25285V6.75859" stroke="#FDFDFD" stroke-width="0.643678" stroke-linecap="round" stroke-linejoin="round"/>
<path id="Vector_2" d="M0.965455 5.79309C0.880098 5.79309 0.798237 5.75918 0.73788 5.69882C0.677524 5.63847 0.643616 5.5566 0.643616 5.47125V1.28734C0.643616 1.20198 0.677524 1.12012 0.73788 1.05976C0.798237 0.999408 0.880098 0.9655 0.965455 0.9655H2.57465C2.91608 0.9655 3.24352 1.10113 3.48495 1.34256C3.72637 1.58398 3.86201 1.91143 3.86201 2.25286C3.86201 1.91143 3.99764 1.58398 4.23906 1.34256C4.48049 1.10113 4.80793 0.9655 5.14936 0.9655H6.75856C6.84392 0.9655 6.92578 0.999408 6.98613 1.05976C7.04649 1.12012 7.0804 1.20198 7.0804 1.28734V5.47125C7.0804 5.5566 7.04649 5.63847 6.98613 5.69882C6.92578 5.75918 6.84392 5.79309 6.75856 5.79309H4.82752C4.57145 5.79309 4.32587 5.89481 4.1448 6.07588C3.96373 6.25695 3.86201 6.50253 3.86201 6.7586C3.86201 6.50253 3.76028 6.25695 3.57921 6.07588C3.39814 5.89481 3.15256 5.79309 2.89649 5.79309H0.965455Z" stroke="#FDFDFD" stroke-width="0.643678" stroke-linecap="round" stroke-linejoin="round"/>
</g>
<defs>
<clipPath id="clip0_0_43">
<rect width="7.72414" height="7.72414" fill="white"/>
</clipPath>
</defs>
</svg>
