<svg preserveAspectRatio="none" width="100%" height="100%" overflow="visible" style="display: block;" viewBox="0 0 7.7782 7.7782" fill="none" xmlns="http://www.w3.org/2000/svg">
<g id="Icon" clip-path="url(#clip0_0_12)">
<path id="Vector" d="M4.37519 2.26865C4.46469 2.26865 4.53724 2.1961 4.53724 2.10661C4.53724 2.01711 4.46469 1.94456 4.37519 1.94456C4.2857 1.94456 4.21315 2.01711 4.21315 2.10661C4.21315 2.1961 4.2857 2.26865 4.37519 2.26865Z" fill="var(--fill-0, #8B7E6A)" stroke="var(--stroke-0, #8B7E6A)" stroke-width="0.648183" stroke-linecap="round" stroke-linejoin="round"/>
<path id="Vector_2" d="M5.67164 3.56501C5.76113 3.56501 5.83368 3.49246 5.83368 3.40297C5.83368 3.31347 5.76113 3.24092 5.67164 3.24092C5.58214 3.24092 5.50959 3.31347 5.50959 3.40297C5.50959 3.49246 5.58214 3.56501 5.67164 3.56501Z" fill="var(--fill-0, #8B7E6A)" stroke="var(--stroke-0, #8B7E6A)" stroke-width="0.648183" stroke-linecap="round" stroke-linejoin="round"/>
<path id="Vector_3" d="M2.75475 2.59274C2.84425 2.59274 2.9168 2.52019 2.9168 2.43069C2.9168 2.3412 2.84425 2.26865 2.75475 2.26865C2.66526 2.26865 2.59271 2.3412 2.59271 2.43069C2.59271 2.52019 2.66526 2.59274 2.75475 2.59274Z" fill="var(--fill-0, #8B7E6A)" stroke="var(--stroke-0, #8B7E6A)" stroke-width="0.648183" stroke-linecap="round" stroke-linejoin="round"/>
<path id="Vector_4" d="M2.10675 4.21321C2.19624 4.21321 2.26879 4.14066 2.26879 4.05116C2.26879 3.96167 2.19624 3.88911 2.10675 3.88911C2.01725 3.88911 1.9447 3.96167 1.9447 4.05116C1.9447 4.14066 2.01725 4.21321 2.10675 4.21321Z" fill="var(--fill-0, #8B7E6A)" stroke="var(--stroke-0, #8B7E6A)" stroke-width="0.648183" stroke-linecap="round" stroke-linejoin="round"/>
<path id="Vector_5" d="M3.88918 0.648202C2.10667 0.648202 0.648261 2.10661 0.648261 3.88912C0.648261 5.67162 2.10667 7.13004 3.88918 7.13004C4.18929 7.13004 4.42328 6.88826 4.42328 6.58297C4.42328 6.44134 4.36494 6.31235 4.28165 6.21837C4.18767 6.1247 4.1397 6.00706 4.1397 5.85376C4.13847 5.78243 4.15162 5.71159 4.17835 5.64545C4.20508 5.5793 4.24485 5.51922 4.2953 5.46877C4.34574 5.41833 4.40583 5.37856 4.47197 5.35182C4.53811 5.32509 4.60896 5.31195 4.68029 5.31318H5.32717C6.31598 5.31318 7.1275 4.50198 7.1275 3.51317C7.11875 1.94846 5.65904 0.648202 3.88918 0.648202Z" stroke="var(--stroke-0, #8B7E6A)" stroke-width="0.648183" stroke-linecap="round" stroke-linejoin="round"/>
</g>
<defs>
<clipPath id="clip0_0_12">
<rect width="7.7782" height="7.7782" fill="white"/>
</clipPath>
</defs>
</svg>
